<svg width="92" height="67" viewBox="0 0 92 67" fill="none" xmlns="http://www.w3.org/2000/svg">
<path d="M27.672 39C27.432 39 27.228 38.916 27.06 38.748C26.892 38.58 26.808 38.376 26.808 38.136V14.7C26.808 14.436 26.88 14.22 27.024 14.052C27.192 13.884 27.408 13.8 27.672 13.8H43.512C43.776 13.8 43.992 13.884 44.16 14.052C44.328 14.22 44.412 14.436 44.412 14.7V17.076C44.412 17.34 44.328 17.556 44.16 17.724C43.992 17.868 43.776 17.94 43.512 17.94H31.668V24.312H42.72C42.984 24.312 43.2 24.396 43.368 24.564C43.536 24.708 43.62 24.912 43.62 25.176V27.408C43.62 27.672 43.536 27.888 43.368 28.056C43.2 28.2 42.984 28.272 42.72 28.272H31.668V34.86H43.8C44.064 34.86 44.28 34.944 44.448 35.112C44.616 35.28 44.7 35.496 44.7 35.76V38.136C44.7 38.4 44.616 38.616 44.448 38.784C44.28 38.928 44.064 39 43.8 39H27.672ZM47.2225 39C46.9585 39 46.7425 38.916 46.5745 38.748C46.4305 38.58 46.3585 38.364 46.3585 38.1V35.58C46.3585 35.172 46.4425 34.86 46.6105 34.644C46.7785 34.404 46.8745 34.272 46.8985 34.248L59.4265 18.048H47.5825C47.3425 18.048 47.1385 17.964 46.9705 17.796C46.8025 17.628 46.7185 17.424 46.7185 17.184V14.7C46.7185 14.436 46.7905 14.22 46.9345 14.052C47.1025 13.884 47.3185 13.8 47.5825 13.8H64.7905C65.0545 13.8 65.2705 13.884 65.4385 14.052C65.6065 14.22 65.6905 14.436 65.6905 14.7V17.184C65.6905 17.616 65.5345 18.036 65.2225 18.444L52.9465 34.716H65.1865C65.4505 34.716 65.6665 34.8 65.8345 34.968C66.0025 35.136 66.0865 35.352 66.0865 35.616V38.136C66.0865 38.4 66.0025 38.616 65.8345 38.784C65.6665 38.928 65.4505 39 65.1865 39H47.2225Z" fill="white"/>
<rect width="16" height="53" fill="#1A93F8"/>
<rect x="76" width="16" height="53" fill="white"/>
<path d="M3.408 64.12C2.552 64.12 1.88 63.88 1.392 63.4C0.912 62.912 0.656 62.232 0.624 61.36L0.612 60.88L0.624 60.4C0.656 59.528 0.912 58.852 1.392 58.372C1.88 57.884 2.552 57.64 3.408 57.64C3.984 57.64 4.472 57.744 4.872 57.952C5.272 58.16 5.568 58.416 5.76 58.72C5.96 59.024 6.068 59.328 6.084 59.632C6.092 59.712 6.068 59.776 6.012 59.824C5.956 59.872 5.888 59.896 5.808 59.896H5.232C5.152 59.896 5.092 59.88 5.052 59.848C5.012 59.816 4.972 59.752 4.932 59.656C4.796 59.272 4.604 59 4.356 58.84C4.108 58.672 3.796 58.588 3.42 58.588C2.924 58.588 2.528 58.744 2.232 59.056C1.944 59.36 1.788 59.828 1.764 60.46L1.752 60.892L1.764 61.3C1.788 61.94 1.944 62.412 2.232 62.716C2.52 63.02 2.916 63.172 3.42 63.172C3.796 63.172 4.108 63.092 4.356 62.932C4.604 62.764 4.796 62.488 4.932 62.104C4.972 62.008 5.012 61.944 5.052 61.912C5.092 61.872 5.152 61.852 5.232 61.852H5.808C5.888 61.852 5.956 61.88 6.012 61.936C6.068 61.984 6.092 62.048 6.084 62.128C6.068 62.424 5.96 62.728 5.76 63.04C5.568 63.344 5.272 63.6 4.872 63.808C4.48 64.016 3.992 64.12 3.408 64.12ZM14.6251 64.12C13.7451 64.12 13.0611 63.872 12.5731 63.376C12.0931 62.88 11.8371 62.22 11.8051 61.396L11.7931 60.88L11.8051 60.364C11.8371 59.548 12.0971 58.892 12.5851 58.396C13.0731 57.892 13.7531 57.64 14.6251 57.64C15.4971 57.64 16.1771 57.892 16.6651 58.396C17.1531 58.892 17.4131 59.548 17.4451 60.364C17.4531 60.452 17.4571 60.624 17.4571 60.88C17.4571 61.136 17.4531 61.308 17.4451 61.396C17.4131 62.22 17.1531 62.88 16.6651 63.376C16.1851 63.872 15.5051 64.12 14.6251 64.12ZM14.6251 63.196C15.1291 63.196 15.5251 63.036 15.8131 62.716C16.1091 62.396 16.2691 61.936 16.2931 61.336C16.3011 61.256 16.3051 61.104 16.3051 60.88C16.3051 60.656 16.3011 60.504 16.2931 60.424C16.2691 59.824 16.1091 59.364 15.8131 59.044C15.5251 58.724 15.1291 58.564 14.6251 58.564C14.1211 58.564 13.7211 58.724 13.4251 59.044C13.1291 59.364 12.9731 59.824 12.9571 60.424L12.9451 60.88L12.9571 61.336C12.9731 61.936 13.1291 62.396 13.4251 62.716C13.7211 63.036 14.1211 63.196 14.6251 63.196ZM23.7957 64C23.7157 64 23.6477 63.976 23.5917 63.928C23.5437 63.872 23.5197 63.804 23.5197 63.724V58.036C23.5197 57.956 23.5437 57.892 23.5917 57.844C23.6477 57.788 23.7157 57.76 23.7957 57.76H24.3597C24.4397 57.76 24.5037 57.788 24.5517 57.844C24.6077 57.892 24.6357 57.956 24.6357 58.036V58.564C24.8677 58.268 25.1397 58.04 25.4517 57.88C25.7717 57.72 26.1677 57.64 26.6397 57.64C27.4077 57.64 28.0037 57.888 28.4277 58.384C28.8597 58.872 29.0757 59.524 29.0757 60.34V63.724C29.0757 63.804 29.0477 63.872 28.9917 63.928C28.9437 63.976 28.8797 64 28.7997 64H28.1997C28.1197 64 28.0517 63.976 27.9957 63.928C27.9477 63.872 27.9237 63.804 27.9237 63.724V60.4C27.9237 59.832 27.7837 59.392 27.5037 59.08C27.2317 58.768 26.8357 58.612 26.3157 58.612C25.8117 58.612 25.4117 58.772 25.1157 59.092C24.8197 59.404 24.6717 59.84 24.6717 60.4V63.724C24.6717 63.804 24.6437 63.872 24.5877 63.928C24.5397 63.976 24.4757 64 24.3957 64H23.7957ZM37.711 64C36.447 64 35.815 63.296 35.815 61.888V58.72H34.879C34.799 58.72 34.731 58.696 34.675 58.648C34.627 58.592 34.603 58.524 34.603 58.444V58.036C34.603 57.956 34.627 57.892 34.675 57.844C34.731 57.788 34.799 57.76 34.879 57.76H35.815V55.756C35.815 55.676 35.839 55.612 35.887 55.564C35.943 55.508 36.011 55.48 36.091 55.48H36.655C36.735 55.48 36.799 55.508 36.847 55.564C36.903 55.612 36.931 55.676 36.931 55.756V57.76H38.419C38.499 57.76 38.563 57.788 38.611 57.844C38.667 57.892 38.695 57.956 38.695 58.036V58.444C38.695 58.524 38.667 58.592 38.611 58.648C38.563 58.696 38.499 58.72 38.419 58.72H36.931V61.804C36.931 62.204 36.999 62.508 37.135 62.716C37.271 62.916 37.495 63.016 37.807 63.016H38.539C38.619 63.016 38.683 63.044 38.731 63.1C38.787 63.148 38.815 63.212 38.815 63.292V63.724C38.815 63.804 38.787 63.872 38.731 63.928C38.683 63.976 38.619 64 38.539 64H37.711ZM44.7985 64C44.7185 64 44.6505 63.976 44.5945 63.928C44.5465 63.872 44.5225 63.804 44.5225 63.724V58.048C44.5225 57.968 44.5465 57.9 44.5945 57.844C44.6505 57.788 44.7185 57.76 44.7985 57.76H45.3505C45.4305 57.76 45.4985 57.788 45.5545 57.844C45.6105 57.9 45.6385 57.968 45.6385 58.048V58.576C45.9665 58.032 46.5265 57.76 47.3185 57.76H47.7865C47.8665 57.76 47.9305 57.788 47.9785 57.844C48.0345 57.892 48.0625 57.956 48.0625 58.036V58.528C48.0625 58.608 48.0345 58.672 47.9785 58.72C47.9305 58.768 47.8665 58.792 47.7865 58.792H47.0665C46.6345 58.792 46.2945 58.92 46.0465 59.176C45.7985 59.424 45.6745 59.764 45.6745 60.196V63.724C45.6745 63.804 45.6465 63.872 45.5905 63.928C45.5345 63.976 45.4665 64 45.3865 64H44.7985ZM55.2874 64.12C54.8954 64.12 54.5314 64.04 54.1954 63.88C53.8594 63.72 53.5914 63.504 53.3914 63.232C53.1994 62.952 53.1034 62.644 53.1034 62.308C53.1034 61.78 53.3194 61.348 53.7514 61.012C54.1914 60.668 54.7834 60.444 55.5274 60.34L57.3154 60.088V59.74C57.3154 58.924 56.8474 58.516 55.9114 58.516C55.5594 58.516 55.2714 58.592 55.0474 58.744C54.8234 58.888 54.6554 59.06 54.5434 59.26C54.5194 59.332 54.4874 59.384 54.4474 59.416C54.4154 59.448 54.3674 59.464 54.3034 59.464H53.7874C53.7154 59.464 53.6514 59.44 53.5954 59.392C53.5474 59.336 53.5234 59.272 53.5234 59.2C53.5314 59.008 53.6194 58.792 53.7874 58.552C53.9634 58.304 54.2314 58.092 54.5914 57.916C54.9514 57.732 55.3954 57.64 55.9234 57.64C56.8194 57.64 57.4634 57.852 57.8554 58.276C58.2474 58.692 58.4434 59.212 58.4434 59.836V63.724C58.4434 63.804 58.4154 63.872 58.3594 63.928C58.3114 63.976 58.2474 64 58.1674 64H57.6154C57.5354 64 57.4674 63.976 57.4114 63.928C57.3634 63.872 57.3394 63.804 57.3394 63.724V63.208C57.1634 63.464 56.9074 63.68 56.5714 63.856C56.2354 64.032 55.8074 64.12 55.2874 64.12ZM55.5394 63.22C56.0594 63.22 56.4834 63.052 56.8114 62.716C57.1474 62.372 57.3154 61.88 57.3154 61.24V60.904L55.9234 61.108C55.3554 61.188 54.9274 61.324 54.6394 61.516C54.3514 61.7 54.2074 61.936 54.2074 62.224C54.2074 62.544 54.3394 62.792 54.6034 62.968C54.8674 63.136 55.1794 63.22 55.5394 63.22ZM67.2485 64.12C66.3925 64.12 65.7205 63.88 65.2325 63.4C64.7525 62.912 64.4965 62.232 64.4645 61.36L64.4525 60.88L64.4645 60.4C64.4965 59.528 64.7525 58.852 65.2325 58.372C65.7205 57.884 66.3925 57.64 67.2485 57.64C67.8245 57.64 68.3125 57.744 68.7125 57.952C69.1125 58.16 69.4085 58.416 69.6005 58.72C69.8005 59.024 69.9085 59.328 69.9245 59.632C69.9325 59.712 69.9085 59.776 69.8525 59.824C69.7965 59.872 69.7285 59.896 69.6485 59.896H69.0725C68.9925 59.896 68.9325 59.88 68.8925 59.848C68.8525 59.816 68.8125 59.752 68.7725 59.656C68.6365 59.272 68.4445 59 68.1965 58.84C67.9485 58.672 67.6365 58.588 67.2605 58.588C66.7645 58.588 66.3685 58.744 66.0725 59.056C65.7845 59.36 65.6285 59.828 65.6045 60.46L65.5925 60.892L65.6045 61.3C65.6285 61.94 65.7845 62.412 66.0725 62.716C66.3605 63.02 66.7565 63.172 67.2605 63.172C67.6365 63.172 67.9485 63.092 68.1965 62.932C68.4445 62.764 68.6365 62.488 68.7725 62.104C68.8125 62.008 68.8525 61.944 68.8925 61.912C68.9325 61.872 68.9925 61.852 69.0725 61.852H69.6485C69.7285 61.852 69.7965 61.88 69.8525 61.936C69.9085 61.984 69.9325 62.048 69.9245 62.128C69.9085 62.424 69.8005 62.728 69.6005 63.04C69.4085 63.344 69.1125 63.6 68.7125 63.808C68.3205 64.016 67.8325 64.12 67.2485 64.12ZM78.3456 64C77.0816 64 76.4496 63.296 76.4496 61.888V58.72H75.5136C75.4336 58.72 75.3656 58.696 75.3096 58.648C75.2616 58.592 75.2376 58.524 75.2376 58.444V58.036C75.2376 57.956 75.2616 57.892 75.3096 57.844C75.3656 57.788 75.4336 57.76 75.5136 57.76H76.4496V55.756C76.4496 55.676 76.4736 55.612 76.5216 55.564C76.5776 55.508 76.6456 55.48 76.7256 55.48H77.2896C77.3696 55.48 77.4336 55.508 77.4816 55.564C77.5376 55.612 77.5656 55.676 77.5656 55.756V57.76H79.0536C79.1336 57.76 79.1976 57.788 79.2456 57.844C79.3016 57.892 79.3296 57.956 79.3296 58.036V58.444C79.3296 58.524 79.3016 58.592 79.2456 58.648C79.1976 58.696 79.1336 58.72 79.0536 58.72H77.5656V61.804C77.5656 62.204 77.6336 62.508 77.7696 62.716C77.9056 62.916 78.1296 63.016 78.4416 63.016H79.1736C79.2536 63.016 79.3176 63.044 79.3656 63.1C79.4216 63.148 79.4496 63.212 79.4496 63.292V63.724C79.4496 63.804 79.4216 63.872 79.3656 63.928C79.3176 63.976 79.2536 64 79.1736 64H78.3456ZM87.3171 64.12C86.7571 64.12 86.2851 64.032 85.9011 63.856C85.5251 63.672 85.2411 63.464 85.0491 63.232C84.8651 63 84.7731 62.808 84.7731 62.656C84.7731 62.576 84.8011 62.516 84.8571 62.476C84.9211 62.428 84.9851 62.404 85.0491 62.404H85.5891C85.6691 62.404 85.7411 62.444 85.8051 62.524C85.9971 62.748 86.2051 62.924 86.4291 63.052C86.6531 63.18 86.9531 63.244 87.3291 63.244C87.7451 63.244 88.0811 63.164 88.3371 63.004C88.6011 62.836 88.7331 62.608 88.7331 62.32C88.7331 62.128 88.6771 61.972 88.5651 61.852C88.4611 61.724 88.2771 61.616 88.0131 61.528C87.7571 61.432 87.3731 61.328 86.8611 61.216C86.1651 61.064 85.6691 60.844 85.3731 60.556C85.0851 60.268 84.9411 59.896 84.9411 59.44C84.9411 59.136 85.0291 58.848 85.2051 58.576C85.3891 58.296 85.6531 58.072 85.9971 57.904C86.3491 57.728 86.7691 57.64 87.2571 57.64C87.7691 57.64 88.2051 57.724 88.5651 57.892C88.9251 58.06 89.1931 58.26 89.3691 58.492C89.5531 58.716 89.6451 58.904 89.6451 59.056C89.6451 59.128 89.6171 59.188 89.5611 59.236C89.5131 59.284 89.4531 59.308 89.3811 59.308H88.8771C88.7811 59.308 88.7011 59.268 88.6371 59.188C88.5091 59.036 88.3971 58.92 88.3011 58.84C88.2131 58.752 88.0811 58.676 87.9051 58.612C87.7371 58.548 87.5211 58.516 87.2571 58.516C86.8731 58.516 86.5771 58.6 86.3691 58.768C86.1611 58.928 86.0571 59.14 86.0571 59.404C86.0571 59.572 86.1011 59.716 86.1891 59.836C86.2771 59.948 86.4451 60.052 86.6931 60.148C86.9491 60.244 87.3171 60.344 87.7971 60.448C88.5571 60.608 89.0931 60.84 89.4051 61.144C89.7251 61.44 89.8851 61.82 89.8851 62.284C89.8851 62.628 89.7851 62.94 89.5851 63.22C89.3851 63.5 89.0891 63.72 88.6971 63.88C88.3131 64.04 87.8531 64.12 87.3171 64.12Z" fill="white"/>
</svg>
