<?xml version="1.0" standalone="no"?>
<!DOCTYPE svg PUBLIC "-//W3C//DTD SVG 20010904//EN"
 "http://www.w3.org/TR/2001/REC-SVG-20010904/DTD/svg10.dtd">
<svg version="1.0" xmlns="http://www.w3.org/2000/svg"
 width="736.000000pt" height="736.000000pt" viewBox="0 0 736.000000 736.000000"
 preserveAspectRatio="xMidYMid meet">
<metadata>
Created by potrace 1.14, written by Peter Selinger 2001-2017
</metadata>
<g transform="translate(0.000000,736.000000) scale(0.100000,-0.100000)"
fill="#000000" stroke="none">
<path d="M0 4240 l0 -2120 28 0 c15 0 283 0 597 0 314 1 589 1 613 0 39 -1 42
1 43 27 1 15 0 32 -1 38 -1 5 -1 26 -1 45 0 19 0 47 0 63 1 42 1 56 2 70 0 15
0 75 -1 102 -1 11 -1 26 -1 33 1 6 1 18 2 25 0 15 0 75 -1 102 -1 11 -1 26 -1
33 1 6 1 18 2 25 0 15 0 75 -1 102 -1 11 -1 26 -1 33 1 6 1 18 2 25 0 15 0 75
-1 102 -1 11 -1 26 -1 33 1 6 1 18 2 25 0 15 0 75 -1 102 -1 11 -1 26 -1 33 1
6 1 18 2 25 0 15 0 75 -1 102 -1 11 -1 26 -1 33 1 6 1 18 2 25 0 15 0 75 -1
102 -1 11 -1 27 -1 35 2 61 3 287 1 295 -1 6 -1 15 0 20 2 14 2 208 0 220 -1
6 -1 15 0 20 2 14 2 208 0 220 -1 6 -1 15 0 20 2 14 2 208 0 220 -1 6 -1 15 0
20 2 14 2 208 0 220 -1 6 -1 15 0 20 2 14 2 208 0 220 -1 6 -1 15 0 20 2 14 2
208 0 220 -1 6 -1 15 0 20 2 14 2 208 0 220 -1 6 -1 15 0 20 2 14 2 208 0 220
-1 6 -1 15 0 20 2 14 2 208 0 220 -1 6 -1 15 0 20 2 13 0 104 -3 135 -2 14 0
34 4 45 3 11 3 29 -1 41 -5 11 -5 26 -1 33 5 7 5 30 1 52 -4 22 -4 41 -1 44 4
2 5 20 3 39 l-4 36 -639 0 -639 0 0 -2120z"/>
<path d="M6082 6330 c3 -16 1 -30 -2 -30 -4 0 -4 -18 0 -40 4 -22 4 -43 0 -45
-4 -3 -4 -21 0 -40 4 -19 4 -35 0 -35 -4 0 -4 -17 0 -38 3 -21 3 -47 0 -58 -4
-10 -4 -28 0 -40 5 -11 5 -27 0 -34 -4 -7 -4 -24 0 -39 4 -14 4 -35 0 -46 -4
-11 -4 -30 1 -41 4 -12 5 -25 2 -28 -5 -5 -8 -268 -3 -291 1 -5 1 -14 0 -20
-2 -14 -2 -208 0 -220 1 -5 1 -14 0 -20 -1 -5 -1 -35 0 -65 0 -30 1 -67 1 -82
0 -16 0 -39 -1 -53 0 -34 0 -53 -1 -67 0 -16 0 -76 1 -103 1 -11 1 -26 1 -32
-1 -7 -1 -19 -2 -25 0 -16 0 -76 1 -103 1 -11 1 -26 1 -32 -1 -7 -1 -19 -2
-25 0 -16 0 -76 1 -103 1 -11 1 -27 1 -35 -2 -61 -3 -287 -1 -295 1 -5 1 -14
0 -20 -2 -14 -2 -208 0 -220 1 -5 1 -14 0 -20 -1 -5 -1 -35 0 -65 0 -30 1 -67
1 -82 0 -16 0 -39 -1 -53 0 -34 0 -53 -1 -67 0 -16 0 -76 1 -103 1 -11 1 -26
1 -32 -1 -7 -1 -19 -2 -25 0 -16 0 -76 1 -103 1 -11 1 -26 1 -32 -1 -7 -1 -19
-2 -25 0 -16 0 -76 1 -103 1 -11 1 -27 1 -35 -2 -61 -3 -287 -1 -295 1 -5 1
-14 0 -20 -2 -14 -2 -208 0 -220 1 -5 1 -14 0 -20 -1 -5 -1 -35 0 -65 0 -30 1
-67 1 -82 0 -16 0 -39 -1 -53 0 -34 0 -53 -1 -67 0 -16 0 -76 1 -103 1 -11 1
-24 1 -30 -1 -42 -2 -135 -2 -156 1 -22 6 -25 44 -28 23 -2 48 -3 55 -2 6 1
18 1 25 2 6 0 237 0 512 -1 275 0 533 0 573 0 l72 0 0 2120 0 2120 -641 0
-641 0 4 -30z"/>
<path d="M2193 5252 c-50 -7 -48 30 -48 -994 0 -527 3 -967 7 -978 15 -41 31
-43 398 -39 8 0 197 0 420 -1 615 -1 558 -3 584 23 21 21 22 30 21 144 -1 104
-3 125 -19 142 -19 21 -26 21 -521 21 l-501 0 0 263 1 262 459 2 c408 1 460 3
475 17 12 13 17 42 19 134 3 105 1 120 -16 142 l-20 25 -459 0 -458 0 0 255 0
255 492 0 c479 0 493 1 507 20 17 22 18 35 18 174 0 82 -2 96 -21 115 l-22 21
-647 0 c-356 0 -657 -1 -669 -3z"/>
<path d="M3771 5246 c-12 -5 -24 -21 -28 -35 -5 -20 -7 -181 -4 -248 1 -7 13
-20 28 -30 24 -16 66 -18 499 -18 260 0 475 -3 478 -6 3 -3 -5 -16 -17 -29
-12 -14 -42 -52 -67 -85 -24 -33 -50 -66 -56 -75 -22 -26 -208 -265 -234 -300
-14 -19 -57 -74 -96 -124 -83 -108 -347 -449 -378 -489 -11 -16 -25 -34 -31
-40 -5 -7 -32 -41 -60 -77 -27 -36 -52 -67 -56 -70 -3 -3 -14 -19 -23 -37 -12
-24 -16 -63 -17 -155 -2 -137 3 -163 32 -178 14 -8 559 -14 729 -9 8 1 182 0
385 -1 372 -2 423 2 426 34 1 6 3 67 4 134 2 115 1 126 -20 150 l-22 25 -484
0 c-266 -1 -491 1 -501 3 -12 4 16 47 122 187 76 101 169 225 208 277 39 52
75 100 79 105 5 6 92 120 193 255 101 135 188 250 193 255 4 6 26 35 48 65 22
30 48 64 57 75 9 11 35 46 57 78 l40 59 -1 137 c0 122 -2 140 -19 157 -18 18
-45 19 -731 19 -430 1 -720 -3 -733 -9z"/>
<path d="M2893 1922 c-25 -4 -25 -4 -27 -107 l-1 -70 -45 -5 c-44 -5 -45 -6
-45 -40 0 -34 1 -35 38 -36 20 -1 41 -4 44 -8 4 -4 8 -75 9 -159 1 -162 8
-191 55 -231 31 -26 159 -35 178 -12 11 13 11 22 3 41 -9 20 -19 25 -49 25
-56 0 -82 10 -90 34 -7 21 -13 282 -6 301 2 6 32 9 67 9 69 -2 81 8 69 56 -5
17 -14 20 -72 20 l-67 0 1 81 c0 44 -2 84 -5 88 -8 12 -33 17 -57 13z"/>
<path d="M6141 1921 c-24 -6 -25 -10 -26 -88 0 -45 -4 -85 -7 -89 -4 -4 -25
-7 -45 -8 -37 -1 -38 -2 -38 -36 0 -34 1 -35 37 -36 21 0 41 -4 45 -8 4 -4 8
-73 9 -154 1 -155 7 -183 48 -227 22 -24 34 -27 105 -32 57 -4 81 -2 82 6 1 6
2 17 3 24 5 32 -15 48 -56 46 -49 -4 -87 25 -89 68 -6 122 -2 266 6 271 5 3
35 5 67 4 56 -2 56 -2 63 29 9 39 -5 50 -60 48 -87 -2 -81 -8 -81 82 1 71 -2
83 -19 94 -11 7 -31 9 -44 6z"/>
<path d="M189 1735 c-97 -31 -141 -115 -138 -261 3 -149 65 -228 190 -241 62
-7 146 14 178 43 14 13 29 24 32 24 9 0 32 59 33 85 1 16 -6 21 -39 23 -37 3
-41 0 -60 -34 -26 -48 -51 -63 -107 -65 -92 -4 -132 46 -135 168 -3 137 26
183 121 191 64 5 105 -17 126 -68 11 -26 17 -30 52 -30 24 0 41 5 44 14 6 17
-32 96 -55 113 -62 47 -164 63 -242 38z"/>
<path d="M1083 1736 c-43 -15 -102 -72 -121 -116 -23 -53 -23 -194 0 -255 33
-92 110 -137 223 -131 78 4 132 31 168 83 33 51 38 67 41 153 5 131 -27 205
-106 250 -48 27 -151 35 -205 16z m154 -80 c45 -23 66 -77 66 -166 0 -85 -19
-139 -60 -165 -29 -19 -100 -26 -128 -12 -19 9 -64 56 -66 67 0 3 -3 14 -5 25
-9 35 -9 155 -1 155 5 0 5 5 2 10 -9 15 30 74 57 88 47 23 89 22 135 -2z"/>
<path d="M2060 1738 c-19 -5 -47 -21 -62 -35 l-26 -25 -4 28 c-3 27 -6 29 -43
29 l-40 0 0 -245 0 -245 43 -2 c27 -2 42 1 43 10 1 6 2 77 4 157 1 80 3 155 4
167 0 12 16 37 34 56 27 27 43 34 80 35 58 3 101 -18 123 -60 14 -26 17 -65
18 -198 l1 -165 24 -3 c12 -2 33 -1 45 2 22 5 23 7 21 178 -2 218 -17 261
-107 309 -30 16 -114 20 -158 7z"/>
<path d="M4398 1739 c-46 -13 -104 -66 -112 -101 -4 -16 -3 -29 1 -29 53 -9
83 -4 83 13 0 6 10 19 21 29 49 43 160 31 181 -19 31 -76 26 -80 -117 -98 -16
-2 -43 -7 -60 -11 -16 -4 -33 -6 -37 -5 -5 1 -8 -3 -8 -8 0 -5 -6 -10 -13 -10
-7 0 -27 -13 -44 -29 -54 -49 -56 -130 -5 -185 61 -64 178 -74 257 -20 44 30
45 30 45 -1 0 -22 4 -25 33 -25 17 0 37 4 43 8 16 11 11 370 -5 402 -34 65
-79 90 -165 95 -33 2 -78 -1 -98 -6z m187 -289 c-4 -49 -31 -105 -61 -125 -57
-37 -168 -19 -180 31 -18 70 24 100 171 121 22 3 41 6 43 7 1 2 8 3 16 3 9 0
13 -12 11 -37z"/>
<path d="M5308 1740 c-54 -17 -95 -50 -122 -100 -16 -29 -26 -60 -23 -71 3
-10 2 -19 -2 -19 -8 0 -6 -106 4 -158 9 -51 58 -116 102 -138 49 -23 202 -26
223 -4 3 3 18 13 33 23 36 23 67 74 67 110 0 25 -3 27 -40 27 -36 0 -41 -4
-59 -39 -37 -71 -140 -86 -200 -28 -35 33 -46 85 -39 188 4 56 10 75 29 95 34
37 58 47 102 46 59 -3 95 -27 117 -79 8 -18 18 -23 49 -23 48 0 54 14 30 68
-20 44 -71 89 -110 98 -47 11 -135 13 -161 4z"/>
<path d="M6903 1736 c-64 -22 -112 -85 -108 -141 1 -21 44 -107 45 -90 0 6 4
5 8 -2 4 -6 55 -25 112 -42 106 -31 140 -53 140 -92 0 -21 -36 -58 -59 -60 -9
-1 -33 -3 -55 -5 -41 -3 -84 14 -113 45 -12 13 -30 19 -53 18 -31 -2 -35 -5
-32 -27 13 -115 286 -149 368 -46 56 69 41 149 -36 197 -19 12 -149 51 -180
54 -16 1 -48 33 -51 50 -8 57 29 85 105 79 37 -2 57 -10 80 -31 28 -25 41 -29
84 -24 37 4 -8 75 -67 106 -41 20 -143 27 -188 11z"/>
<path d="M3565 1717 c-2 -12 -3 -123 -2 -247 l2 -225 43 -1 c49 -1 43 -22 47
186 1 74 3 143 4 152 1 22 47 68 69 69 121 8 109 4 116 41 7 39 -14 51 -74 45
-54 -6 -64 -10 -98 -41 -24 -21 -24 -21 -22 -1 4 38 0 43 -40 43 -33 1 -41 -3
-45 -21z"/>
</g>
</svg>
